<svg xmlns="http://www.w3.org/2000/svg" version="1.1" xmlns:xlink="http://www.w3.org/1999/xlink" xmlns:svgjs="http://svgjs.dev/svgjs" width="100%" height="100%" viewBox="0 0 1000 600"><rect width="1000" height="600" x="0" y="0" fill="#181818"/><g><rect width="333.3333333333333" height="333.3333333333333" rx="13.333333333333334" ry="13.333333333333334" y="184.90183213884382" fill="#000000" transform="matrix(0.7683814053200658,0,0,0.7683814053200658,0,29.861291283971525)" x="162.67962646484375"/><path d="M309.46413870431354 422.3612544767103L259.18171173673903 422.3612544767103L259.18171173673903 416.25490512387876L269.93356131493044 416.25490512387876L269.93356131493044 282.6748609078703L259.18171173673903 282.6748609078703L259.18171173673903 276.56851155503875L317.8786296785503 276.56851155503875Q344.1739139730401 276.56851155503875 358.57788636991063 286.9989743251864Q373.01107574933064 297.4002201127846 373.01107574933064 315.9237870491253L373.01107574933064 315.9237870491253Q373.01107574933064 326.85093852261326 368.8038302622123 333.6000614915323Q364.5965847750939 340.31996747790197 357.23390517263675 344.0013072791305Q349.8712255701796 347.6826470803591 340.1711873637678 349.37723206822625L340.1711873637678 349.37723206822625L340.1711873637678 350.19530757961036L363.95381115900636 389.9596208293889Q370.0601605118379 400.06869679149275 374.67644375464835 405.415404598039Q379.3219439800082 410.79132938713474 383.7337083449726 413.2163389387377Q388.14547270993705 415.64134849034065 393.6090484466811 416.8976787399663L393.6090484466811 416.8976787399663Q395.91719006808626 417.30671649565835 397.7286429861511 418.03714105939423Q399.5108789216665 418.7967826056794 399.5108789216665 419.848593977459L399.5108789216665 419.848593977459Q399.5108789216665 422.7702922324023 395.18676550435043 424.6693960981155Q390.8918690695838 426.5684999638287 386.24636884422387 426.5684999638287L386.24636884422387 426.5684999638287Q373.01107574933064 426.5684999638287 364.0706790892041 422.8871601626001Q355.13028242907757 419.2058203613715 348.49802739035624 411.6386218810683Q341.86577235163486 404.0714234007651 335.14586636526525 392.91053606688166L335.14586636526525 392.91053606688166L310.1069123204011 351.24711895138995L298.74150610867156 351.24711895138995L298.74150610867156 416.25490512387876L309.46413870431354 416.25490512387876L309.46413870431354 422.3612544767103ZM298.74150610867156 282.6748609078703L298.74150610867156 345.1699865811078L312.8240916974983 345.1699865811078Q327.7831867628081 345.1699865811078 335.75942299880336 338.3332126645405Q343.76487621734805 331.4964387479731 343.76487621734805 315.48553231088374L343.76487621734805 315.48553231088374Q343.76487621734805 299.94209759458533 336.72358342293467 291.2938707599531Q329.65307364597186 282.6748609078703 310.9542048143346 282.6748609078703L310.9542048143346 282.6748609078703L298.74150610867156 282.6748609078703Z " fill="#ffffff" transform="matrix(0.7683814053200658,0,0,0.7683814053200658,0,29.861291283971525)"/><path d="M579.3462931422312 384.14908109567614L579.3462931422312 384.14908109567614Q579.3462931422312 382.0002551914807 581.3558432933769 382.0002551914807L581.3558432933769 382.0002551914807L587.3645972106644 381.58242793233154Q588.7971478134614 381.4431521792818 589.8715607655591 380.7865664863332Q590.9459737176569 380.14987732953455 590.9459737176569 378.14032717838876L590.9459737176569 378.14032717838876L590.9459737176569 330.4284334907887Q590.9459737176569 328.1403318335435 590.3689741693081 327.0659188814457Q589.8118711571092 325.99150592934797 588.518596307362 325.41450638099917L588.518596307362 325.41450638099917Q587.2253214576147 324.6982310796007 585.2953574510686 324.4196795735013Q583.3653934445227 324.14112806740184 581.773670552526 323.9819557782022L581.773670552526 323.9819557782022Q580.6395679919785 323.8426800251525 579.9829822990298 323.62381812750294Q579.3462931422312 323.42485276600337 579.3462931422312 321.9923021632064L579.3462931422312 321.9923021632064Q579.3462931422312 320.69902731345906 579.7840169375303 320.2016139097101Q580.2018441966793 319.6843039698112 581.6343947994764 319.6843039698112L581.6343947994764 319.6843039698112Q583.2062211553231 319.6843039698112 586.7875976623156 319.4853386083116Q590.3689741693081 319.26647671066206 593.0947996218524 319.1272009576124L593.0947996218524 319.1272009576124Q596.5369003757951 318.828752915363 599.3224154367894 318.5502014092636Q602.1278270339335 318.2517533670142 603.8389291428298 318.2517533670142L603.8389291428298 318.2517533670142Q606.1270308000751 318.2517533670142 606.5647545953741 319.4853386083116Q607.0024783906732 320.69902731345906 607.0024783906732 322.2708536693058L607.0024783906732 322.2708536693058L607.0024783906732 331.30388108138686L607.559581402872 331.721708340536Q613.0112323079607 326.28995397159736 619.4577100205472 321.91271601860655Q625.9041877331337 317.5354780656157 632.0721139396207 317.5354780656157L632.0721139396207 317.5354780656157Q636.6483172541111 317.5354780656157 639.593004604305 319.26647671066206Q642.5177954183489 320.9775788195585 643.9503460211458 323.2059908683538Q645.3828966239428 325.41450638099917 645.3828966239428 326.7077812307465L645.3828966239428 326.7077812307465Q645.3828966239428 327.5633322851947 643.890656412696 329.15505517719134Q642.3785196652991 330.72688153303807 640.3689695141534 332.5772593949842L640.3689695141534 332.5772593949842Q638.0808678569081 334.58680954613 635.9320419527127 336.1586359019767Q633.7832160485171 337.75035879397336 632.7883892410192 337.75035879397336L632.7883892410192 337.75035879397336Q631.6343901443216 337.75035879397336 630.9181148429232 336.8749112033752Q630.2018395415246 336.019360148927 629.2070127340266 334.44753379308025L629.2070127340266 334.44753379308025Q627.7744621312297 332.02015638278533 625.9041877331337 330.07029584008944Q624.0339133350376 328.1403318335435 621.3279844186432 328.1403318335435L621.3279844186432 328.1403318335435Q618.3037109238496 328.1403318335435 614.5233690553575 331.22429493678703Q610.7231306507155 334.3082580400306 607.0024783906732 338.7451856014713L607.0024783906732 338.7451856014713L607.0024783906732 378.14032717838876Q607.0024783906732 380.14987732953455 608.1365809512208 380.7865664863332Q609.2905800479184 381.4431521792818 610.7231306507155 381.58242793233154L610.7231306507155 381.58242793233154L616.7318845680029 382.0002551914807Q618.602158966099 382.0002551914807 618.602158966099 384.14908109567614L618.602158966099 384.14908109567614Q618.602158966099 386.158631246822 617.1696083633019 386.158631246822L617.1696083633019 386.158631246822Q615.737057760505 386.158631246822 613.2300942056102 385.9397693491724Q610.7231306507155 385.74080398767285 608.5743047465199 385.5816316984732L608.5743047465199 385.5816316984732Q606.1270308000751 385.3030801923737 603.5603776367304 385.16380443932405Q600.9738279372359 385.0245286862743 598.9642777860901 385.0245286862743L598.9642777860901 385.0245286862743Q596.9746241710943 385.0245286862743 594.3880744715997 385.16380443932405Q591.801524772105 385.3030801923737 589.3741473618102 385.5816316984732L589.3741473618102 385.5816316984732Q587.2253214576147 385.74080398767285 584.7183579027198 385.9397693491724Q582.2113943478251 386.158631246822 580.7788437450281 386.158631246822L580.7788437450281 386.158631246822Q579.3462931422312 386.158631246822 579.3462931422312 384.14908109567614ZM651.6900985834797 321.9923021632064L651.6900985834797 321.9923021632064Q651.6900985834797 319.6843039698112 654.1174759937745 319.6843039698112L654.1174759937745 319.6843039698112Q655.7091988857712 319.6843039698112 659.2905753927637 319.4853386083116Q662.8719518997561 319.26647671066206 665.5778808161506 319.1272009576124L665.5778808161506 319.1272009576124Q669.0199815700934 318.828752915363 671.8253931672375 318.5502014092636Q674.6109082282317 318.2517533670142 676.3220103371281 318.2517533670142L676.3220103371281 318.2517533670142Q678.6300085305231 318.2517533670142 679.0478357896723 319.4853386083116Q679.4855595849714 320.69902731345906 679.4855595849714 322.2708536693058L679.4855595849714 322.2708536693058L679.4855595849714 369.68429931465647Q679.4855595849714 371.5545737127526 680.2018348863699 373.76308922539795Q680.9181101877684 375.99150127419324 682.8480741943143 377.50363802159006Q684.7780382008604 378.99587823283696 688.4986904609025 378.99587823283696L688.4986904609025 378.99587823283696Q693.512617570692 378.99587823283696 698.3872689274318 376.3496389248925Q703.2619202841715 373.70339961694805 707.2810205864632 370.97757416440373L707.2810205864632 370.97757416440373L707.2810205864632 330.4284334907887Q707.2810205864632 328.1403318335435 706.7040210381144 327.0659188814457Q706.1270214897656 325.99150592934797 704.8337466400183 325.41450638099917L704.8337466400183 325.41450638099917Q703.540471790271 324.6982310796007 701.6105077837251 324.4196795735013Q699.6805437771791 324.14112806740184 698.1087174213324 323.9819557782022L698.1087174213324 323.9819557782022Q696.9547183246348 323.8426800251525 696.3180291678361 323.62381812750294Q695.6614434748875 323.42485276600337 695.6614434748875 321.9923021632064L695.6614434748875 321.9923021632064Q695.6614434748875 320.69902731345906 696.0991672701866 320.2016139097101Q696.5368910654856 319.6843039698112 697.9694416682827 319.6843039698112L697.9694416682827 319.6843039698112Q699.5412680241294 319.6843039698112 703.1226445311219 319.4853386083116Q706.7040210381144 319.26647671066206 709.4298464906586 319.1272009576124L709.4298464906586 319.1272009576124Q712.8520507084515 318.828752915363 715.7171519140455 318.5502014092636Q718.5822531196395 318.2517533670142 720.3132517646859 318.2517533670142L720.3132517646859 318.2517533670142Q722.6013534219311 318.2517533670142 722.9594910726303 319.4853386083116Q723.3176287233296 320.69902731345906 723.3176287233296 322.2708536693058L723.3176287233296 322.2708536693058L723.3176287233296 374.4196749183466Q723.3176287233296 378.001051425339 726.6204537242227 378.001051425339L726.6204537242227 378.001051425339Q727.3367290256211 378.001051425339 728.6101073392185 377.86177567228935Q729.9033821889658 377.7026033830897 730.9181055326137 377.56332763003996L730.9181055326137 377.56332763003996Q732.3506561354106 377.28477612394056 733.4250690875084 377.14550037089083Q734.4994820396062 376.98632808169117 735.2157573410046 376.98632808169117L735.2157573410046 376.98632808169117Q736.489135654602 376.98632808169117 736.489135654602 378.71732672673755L736.489135654602 378.71732672673755Q736.489135654602 380.866152630933 732.0522080931613 382.0002551914807L732.0522080931613 382.0002551914807Q729.0478311345175 382.87570278207886 726.4015918265732 383.7909434449769Q723.7553525186287 384.72608064402493 721.4473543252335 385.5816316984732L721.4473543252335 385.5816316984732Q718.7414254088392 386.7356307951707 715.0008766126471 386.7356307951707L715.0008766126471 386.7356307951707Q712.2949476962526 386.7356307951707 710.2853975451069 383.2338404327781Q708.2758473939612 379.7121535342354 707.4202963395129 376.4292250694923L707.4202963395129 376.4292250694923L706.8432967911641 376.13077702724297Q700.675370584677 379.85142928728516 693.8707552213913 383.37311618582777Q687.0661398581055 386.87490654822045 680.9181101877684 386.87490654822045L680.9181101877684 386.87490654822045Q670.7509802151396 386.87490654822045 667.0900175635473 381.72170368538127Q663.4290549119551 376.56850082254203 663.4290549119551 367.83392145271034L663.4290549119551 367.83392145271034L663.4290549119551 330.4284334907887Q663.4290549119551 328.1403318335435 662.7923657551564 327.0659188814457Q662.1556765983577 325.99150592934797 660.8624017486104 325.41450638099917L660.8624017486104 325.41450638099917Q659.5691268988631 324.6982310796007 657.6391628923171 324.4196795735013Q655.7091988857712 324.14112806740184 654.1174759937745 323.9819557782022L654.1174759937745 323.9819557782022Q652.9833734332269 323.8426800251525 652.3267877402783 323.62381812750294Q651.6900985834797 323.42485276600337 651.6900985834797 321.9923021632064ZM741.2245112582921 384.14908109567614L741.2245112582921 384.14908109567614Q741.2245112582921 382.0002551914807 743.2340614094378 382.0002551914807L743.2340614094378 382.0002551914807L749.2428153267252 381.58242793233154Q750.6753659295223 381.4431521792818 751.8293650262199 380.7865664863332Q752.9634675867675 380.14987732953455 752.9634675867675 378.14032717838876L752.9634675867675 378.14032717838876L752.9634675867675 289.6007413110742Q752.9634675867675 287.312639653829 752.3267784299687 286.23822670173126Q751.6900892731701 285.1638137496335 750.3968144234228 284.5868142012847L750.3968144234228 284.5868142012847Q749.1035395736756 283.87053889988624 747.1735755671297 283.5919873937868Q745.2436115605836 283.3134358876874 743.6518886685869 283.1542635984877L743.6518886685869 283.1542635984877Q742.5177861080393 283.014987845438 741.8612004150907 282.7961259477885Q741.2245112582921 282.5971605862889 741.2245112582921 281.1646099834919L741.2245112582921 281.1646099834919Q741.2245112582921 278.85661179009674 743.6518886685869 278.85661179009674L743.6518886685869 278.85661179009674Q745.2436115605836 278.85661179009674 748.8249880675762 278.5780602839973Q752.4063645745687 278.2995087778979 755.112293490963 278.1403364886982L755.112293490963 278.1403364886982Q758.5543942449058 277.8617849825988 761.3598058420499 277.6429230849493Q764.1453209030441 277.42406118729974 765.8564230119405 277.42406118729974L765.8564230119405 277.42406118729974Q768.1644212053357 277.42406118729974 768.5822484644848 278.6576464285971Q769.0199722597838 279.8713351337446 769.0199722597838 281.44316148959126L769.0199722597838 281.44316148959126L769.0199722597838 378.14032717838876Q769.0199722597838 380.14987732953455 770.0943852118816 380.7865664863332Q771.1687981639793 381.4431521792818 772.6013487667764 381.58242793233154L772.6013487667764 381.58242793233154L778.6101026840638 382.0002551914807Q780.6196528352095 382.0002551914807 780.6196528352095 384.14908109567614L780.6196528352095 384.14908109567614Q780.6196528352095 386.158631246822 779.1871022324125 386.158631246822L779.1871022324125 386.158631246822Q777.7545516296155 386.158631246822 775.2475880747209 385.9397693491724Q772.740624519826 385.74080398767285 770.5917986156305 385.5816316984732L770.5917986156305 385.5816316984732Q768.1644212053357 385.3030801923737 765.5778715058411 385.16380443932405Q762.9913218063465 385.0245286862743 761.0016681913506 385.0245286862743L761.0016681913506 385.0245286862743Q758.9921180402048 385.0245286862743 756.4055683407103 385.16380443932405Q753.8389151773656 385.3030801923737 751.3916412309208 385.5816316984732L751.3916412309208 385.5816316984732Q749.2428153267252 385.74080398767285 746.7358517718305 385.9397693491724Q744.2288882169357 386.158631246822 742.7963376141388 386.158631246822L742.7963376141388 386.158631246822Q741.2245112582921 386.158631246822 741.2245112582921 384.14908109567614ZM789.2149564519916 352.07586482194336L789.2149564519916 352.07586482194336Q789.2149564519916 341.8888383131647 793.731470158032 333.95012038933135Q798.2479838640727 325.99150592934797 805.7688745287569 321.4153026148576Q813.2897651934411 316.8192027642172 822.442171822422 316.8192027642172L822.442171822422 316.8192027642172Q830.1819243847557 316.8192027642172 835.4942995367946 319.04761481301256Q840.7867781526835 321.27602686180785 844.0100170089768 324.6385414711508Q847.23325586527 328.00105608049375 848.7453926126668 331.6620187320861Q850.2376328239137 335.30308484752845 850.2376328239137 338.30746180617217L850.2376328239137 338.30746180617217Q850.2376328239137 342.76428590376287 845.800705262473 343.8983884643105L845.800705262473 343.8983884643105L806.5448394386052 355.3587932866865Q808.2758380836516 365.24737175321576 814.5631435070384 370.97757416440373Q820.8703454665753 376.70777657559177 829.1870975772578 376.70777657559177L829.1870975772578 376.70777657559177Q833.1863013433995 376.70777657559177 836.0514025489935 375.13595021974504Q838.9165037545874 373.5641238638983 840.6475023996338 372.27084901415105L840.6475023996338 372.27084901415105Q842.4978802615799 370.83829841135406 843.5722932136778 370.18171271840544Q844.6467061657754 369.54502356160674 845.800705262473 369.54502356160674L845.800705262473 369.54502356160674Q847.9495311666685 369.54502356160674 847.9495311666685 371.69384946580226L847.9495311666685 371.69384946580226Q847.9495311666685 373.5641238638983 845.3032918587242 376.13077702724297Q842.6570525507796 378.71732672673755 838.4190903508385 381.2242902816323Q834.2010246870473 383.731253836527 829.2467871857076 385.38266633697356Q824.312446220518 387.0141823012701 819.7362429060277 387.0141823012701L819.7362429060277 387.0141823012701Q809.8476644394983 387.0141823012701 803.0430490762126 381.86097943843095Q796.2384337129268 376.70777657559177 792.7167468143842 368.68947250715854Q789.2149564519916 360.6711684387253 789.2149564519916 352.07586482194336ZM805.4107368780576 345.62938710935686L805.4107368780576 345.62938710935686Q805.4107368780576 348.3353160257512 805.8285641372067 351.20041723134517L805.8285641372067 351.20041723134517L828.4708222758593 344.614663765709Q831.1966477284036 343.8983884643105 832.5496121866007 342.2469759638639Q833.9025766447979 340.61545999956735 833.9025766447979 337.17335924562457L833.9025766447979 337.17335924562457Q833.9025766447979 333.7312584916818 832.6888879396505 330.1498819846893Q831.475199234503 326.56850547769676 828.5305118843091 324.14112806740184Q825.6057210702653 321.693854120957 820.4525182074261 321.693854120957L820.4525182074261 321.693854120957Q816.7119694112339 321.693854120957 813.2897651934411 324.4196795735013Q809.8476644394983 327.14550502604556 807.619252390703 332.5175697865343Q805.4107368780576 337.8896345470231 805.4107368780576 345.62938710935686ZM861.121038097941 362.9592700959705L861.121038097941 362.9592700959705Q861.121038097941 362.24299479457204 861.6383480378397 361.805270999273Q862.1357614415888 361.38744374012384 862.7127609899376 361.38744374012384L862.7127609899376 361.38744374012384Q864.2845873457843 361.38744374012384 865.0008626471827 362.46185669222155Q865.7171379485812 363.5362696443193 866.29413749693 364.67037220486696L866.29413749693 364.67037220486696Q868.2837911119259 369.26647205550734 871.1488923175199 373.40495157469866Q874.0139935231139 377.56332763003996 878.0330938254056 380.14987732953455Q882.052194127697 382.71653049287914 887.0661212374865 382.71653049287914L887.0661212374865 382.71653049287914Q894.2288742514716 382.71653049287914 897.1536650655155 379.57287778118575Q900.0983524157093 376.4292250694923 900.0983524157093 372.54940052025046L900.0983524157093 372.54940052025046Q900.0983524157093 367.3961976574112 895.939976360368 364.61068259641706Q891.7816003050267 361.805270999273 883.7632962365935 358.22389449228046L883.7632962365935 358.22389449228046Q878.3116453315049 355.79651708198554 873.6558558724146 353.0706916294413Q869.0000664133245 350.34486617689697 866.1349652077304 346.1268005131058Q863.2698640021365 341.8888383131647 863.2698640021365 335.30308484752845L863.2698640021365 335.30308484752845Q863.2698640021365 328.00105608049375 869.1592387025241 322.628991320005Q875.0287168667619 317.2569265595163 887.344672743586 317.2569265595163L887.344672743586 317.2569265595163Q891.5030487989272 317.2569265595163 895.6614248542686 318.1124776139645Q899.7999043734599 318.96802866841267 903.102729374353 320.26130351816L903.102729374353 320.26130351816Q906.8233816343952 321.693854120957 907.8977945864929 322.70857746460484Q908.9722075385907 323.7034042721028 908.9722075385907 325.41450638099917L908.9722075385907 325.41450638099917Q908.9722075385907 325.8522301762983 908.832931785541 327.14550502604556Q908.6936560324912 328.4387798757929 908.2559322371922 330.8661572860878L908.2559322371922 330.8661572860878Q907.838104978043 333.154258943333 907.2611054296942 335.7408086428276Q906.6841058813454 338.30746180617217 906.1071063329966 338.30746180617217L906.1071063329966 338.30746180617217Q904.5352799771499 338.30746180617217 903.102729374353 335.4423606005782L903.102729374353 335.4423606005782Q901.6701787715559 332.43798364193447 899.3820771143107 329.21474478564124Q897.0939754570657 325.99150592934797 894.0697019622719 323.7829904167026Q891.0653250036282 321.5545783679073 887.2053969905363 321.5545783679073L887.2053969905363 321.5545783679073Q881.0374707840492 321.5545783679073 878.3116453315049 323.92226616975233Q875.6057164151106 326.28995397159736 875.6057164151106 330.58760577998834L875.6057164151106 330.58760577998834Q875.6057164151106 335.4423606005782 879.684506325852 338.52632370382173Q883.7632962365935 341.6102868070653 889.9312224430805 344.47538801265927L889.9312224430805 344.47538801265927Q896.7955274148162 347.61904072435266 902.0283164222552 350.7030038275962Q907.2611054296942 353.78696693083975 910.1262066352882 357.64689494393167Q912.9913078408822 361.5267194931736 912.9913078408822 366.95847386211216L912.9913078408822 366.95847386211216Q912.9913078408822 376.56850082254203 906.1866924775966 381.8012898299811Q899.3820771143107 387.0141823012701 886.7676731952372 387.0141823012701L886.7676731952372 387.0141823012701Q884.479571537992 387.0141823012701 880.8186088863997 386.5167688975212Q877.1775427709573 386.01935549377225 873.4568905109151 385.2234940477739Q869.7163417147228 384.4475291379255 867.1496885513782 383.731253836527L867.1496885513782 383.731253836527Q863.429036291336 382.57725473982947 862.5535887007379 382.0002551914807Q861.6980376462897 381.4431521792818 861.55876189324 379.7121535342354L861.55876189324 379.7121535342354Q861.4194861401902 376.98632808169117 861.3398999955905 373.6238134723482Q861.2802103871406 370.26129886300527 861.2006242425407 367.3166115128114Q861.121038097941 364.39182069876756 861.121038097941 362.9592700959705ZM924.7302641693577 376.56850082254203L924.7302641693577 376.56850082254203Q924.7302641693577 371.97240097190166 928.0330891702508 368.68947250715854Q931.3160176349938 365.3866475062655 935.9121174856343 365.3866475062655L935.9121174856343 365.3866475062655Q940.4883208001247 365.3866475062655 943.7911458010178 368.68947250715854Q947.0740742657608 371.97240097190166 947.0740742657608 376.56850082254203L947.0740742657608 376.56850082254203Q947.0740742657608 381.1447041370324 943.7911458010178 384.50721874637543Q940.4883208001247 387.8896298918683 935.9121174856343 387.8896298918683L935.9121174856343 387.8896298918683Q931.3160176349938 387.8896298918683 928.0330891702508 384.50721874637543Q924.7302641693577 381.1447041370324 924.7302641693577 376.56850082254203ZM959.2507543895354 384.14908109567614L959.2507543895354 384.14908109567614Q959.2507543895354 382.0002551914807 961.2603045406811 382.0002551914807L961.2603045406811 382.0002551914807L967.2889549941185 381.58242793233154Q968.7215055969156 381.4431521792818 969.7959185490133 380.7865664863332Q970.870331501111 380.14987732953455 970.870331501111 378.14032717838876L970.870331501111 378.14032717838876L970.870331501111 323.2656804768037L960.404753486233 323.2656804768037Q959.2507543895354 323.2656804768037 959.2507543895354 322.4101294223555L959.2507543895354 322.4101294223555Q959.2507543895354 321.693854120957 960.0466158355337 320.4005792712097Q960.842477281532 319.1272009576124 961.9765798420797 319.1272009576124L961.9765798420797 319.1272009576124L970.870331501111 319.1272009576124L970.870331501111 307.368348092987Q970.870331501111 297.9174934217568 973.4369846644556 291.9087395044694Q976.0235343639501 285.88008905103203 980.2416000277415 282.5175744416891Q984.4795622276824 279.15505983234607 989.4139031928721 277.8617849825988Q994.3482441580618 276.56851013285154 999.0836197617518 276.56851013285154L999.0836197617518 276.56851013285154Q1001.5109971720468 276.56851013285154 1004.2368226245911 277.0062339281506Q1006.9626480771353 277.42406118729974 1008.8926120836813 278.0806468802483Q1010.8225760902274 278.717336037047 1010.8225760902274 279.5728870914952L1010.8225760902274 279.5728870914952Q1010.8225760902274 281.7217129956907 1009.6884735296796 284.944951851984Q1008.534474432982 288.1681907082772 1006.8830619325356 290.675154263172Q1005.251545968239 293.18211781806673 1003.5205473231927 293.18211781806673L1003.5205473231927 293.18211781806673Q1002.2272724734453 293.18211781806673 1001.0931699128977 291.9087395044694Q999.9391708162002 290.6154646547221 998.9443440087023 288.6059145035763L998.9443440087023 288.6059145035763Q997.9296206650542 286.3178128463311 996.1389324115581 284.2286765505855Q994.3482441580618 282.1594367909898 991.4831429524679 282.1594367909898L991.4831429524679 282.1594367909898Q988.7772140360735 282.1594367909898 986.6880777403279 284.44753844823504Q984.6188379807322 286.73564010548023 984.6188379807322 291.3317399561206L984.6188379807322 291.3317399561206Q984.6188379807322 292.62501480586786 984.9769756314315 295.9875294152108Q985.3351132821308 299.35004402455377 985.6136647882302 301.4988699287493L985.6136647882302 301.4988699287493Q986.190664336579 304.64252264044273 986.628388131878 308.800898695784Q987.0462153910271 312.9592747511253 987.0462153910271 314.9688249022711L987.0462153910271 314.9688249022711L987.0462153910271 319.1272009576124L1004.9530979259896 319.1272009576124Q1006.1070970226872 319.1272009576124 1006.1070970226872 320.12202776511026L1006.1070970226872 320.12202776511026Q1006.1070970226872 320.8383030665088 1005.3112355766889 322.0519917716562Q1004.5352706668405 323.2656804768037 1003.3812715701429 323.2656804768037L1003.3812715701429 323.2656804768037L987.0462153910271 323.2656804768037L987.0462153910271 378.14032717838876Q987.0462153910271 380.14987732953455 988.120628343125 380.7865664863332Q989.1950412952226 381.4431521792818 990.6275918980197 381.58242793233154L990.6275918980197 381.58242793233154L996.656242351457 382.0002551914807Q998.6458959664528 382.0002551914807 998.6458959664528 384.14908109567614L998.6458959664528 384.14908109567614Q998.6458959664528 386.158631246822 997.0740696106061 386.158631246822L997.0740696106061 386.158631246822Q995.6415190078092 386.158631246822 993.1345554529144 385.9397693491724Q990.6275918980197 385.74080398767285 988.478765993824 385.5816316984732L988.478765993824 385.5816316984732Q986.0513885835292 385.3030801923737 983.4648388840346 385.16380443932405Q980.89818572069 385.0245286862743 978.8886355695442 385.0245286862743L978.8886355695442 385.0245286862743Q976.8790854183985 385.0245286862743 974.2925357189038 385.16380443932405Q971.7258825555592 385.3030801923737 969.2786086091144 385.5816316984732L969.2786086091144 385.5816316984732Q967.1297827049189 385.74080398767285 964.622819150024 385.9397693491724Q962.1158555951292 386.158631246822 960.6833049923323 386.158631246822L960.6833049923323 386.158631246822Q959.2507543895354 386.158631246822 959.2507543895354 384.14908109567614ZM1013.2698500366721 320.12202776511026L1013.2698500366721 320.12202776511026Q1013.2698500366721 318.1124776139645 1014.7024006394691 318.1124776139645L1014.7024006394691 318.1124776139645Q1015.8365032000168 318.1124776139645 1017.9256394957624 318.2517533670142Q1019.994879255358 318.41092565621386 1022.1437051595535 318.68947716231327L1022.1437051595535 318.68947716231327Q1024.5909791059985 318.828752915363 1027.1576322693431 319.04761481301256Q1029.7441819688377 319.26647671066206 1031.7537321199834 319.26647671066206L1031.7537321199834 319.26647671066206Q1033.7433857349793 319.26647671066206 1036.329935434474 319.04761481301256Q1038.9164851339685 318.828752915363 1041.3438625442634 318.68947716231327L1041.3438625442634 318.68947716231327Q1043.492688448459 318.41092565621386 1045.9996520033537 318.2517533670142Q1048.5066155582483 318.1124776139645 1049.9391661610455 318.1124776139645L1049.9391661610455 318.1124776139645Q1051.3717167638424 318.1124776139645 1051.3717167638424 320.12202776511026L1051.3717167638424 320.12202776511026Q1051.3717167638424 322.2708536693058 1049.3621666126965 322.4101294223555L1049.3621666126965 322.4101294223555Q1046.795513449352 322.5494051754052 1044.5671014005566 323.2656804768037Q1042.3386893517613 323.9819557782022 1042.3386893517613 326.84705698379616L1042.3386893517613 326.84705698379616Q1042.3386893517613 327.5633322851947 1042.8559992916603 328.7969175264921Q1043.3534126954091 330.0106062316396 1043.492688448459 330.58760577998834L1043.492688448459 330.58760577998834L1060.106296133674 368.8287482602083L1070.134150353253 342.60511361456315Q1071.7059767090998 338.60590984842156 1072.4222520104981 335.3826709921283Q1073.1385273118967 332.15943213583506 1073.1385273118967 328.9958828879917L1073.1385273118967 328.9958828879917Q1073.1385273118967 322.8478532176546 1066.1349465871115 322.4101294223555L1066.1349465871115 322.4101294223555Q1064.1253964359657 322.2708536693058 1064.1253964359657 320.12202776511026L1064.1253964359657 320.12202776511026Q1064.1253964359657 318.1124776139645 1065.6972227918122 318.1124776139645L1065.6972227918122 318.1124776139645Q1066.4134980932108 318.1124776139645 1067.766462551408 318.2517533670142Q1069.1393235457551 318.41092565621386 1071.2881494499507 318.68947716231327L1071.2881494499507 318.68947716231327Q1073.7155268602455 318.96802866841267 1075.5062151137417 319.1272009576124Q1077.2969033672382 319.26647671066206 1078.7294539700351 319.26647671066206L1078.7294539700351 319.26647671066206Q1080.162004572832 319.26647671066206 1081.9526928263283 319.1272009576124Q1083.7433810798245 318.96802866841267 1086.1906550262695 318.68947716231327L1086.1906550262695 318.68947716231327Q1088.339480930465 318.41092565621386 1089.6924453886622 318.2517533670142Q1091.0454098468592 318.1124776139645 1091.7616851482578 318.1124776139645L1091.7616851482578 318.1124776139645Q1092.4779604496562 318.1124776139645 1093.2738218956547 318.4706152646637Q1094.0696833416528 318.828752915363 1094.0696833416528 320.12202776511026L1094.0696833416528 320.12202776511026Q1094.0696833416528 321.1168545726082 1093.1942357510547 321.63416451250714Q1092.3386846966064 322.13157791625605 1091.204582136059 322.4101294223555L1091.204582136059 322.4101294223555Q1086.329930779319 323.2656804768037 1083.3255538206754 326.34964358004726Q1080.3012803258816 329.4336066832908 1077.7346271625372 336.019360148927L1077.7346271625372 336.019360148927L1046.3577896540528 417.2569172492068Q1045.0645148043054 420.4005699609002 1043.413102303859 423.48453306414376Q1041.7815863395624 426.5684961673873 1039.1950366400679 426.5684961673873L1039.1950366400679 426.5684961673873Q1033.902558024179 426.5684961673873 1029.8038715772875 425.1359455645903Q1025.725081666546 423.70339496179326 1025.725081666546 421.8331205636972L1025.725081666546 421.8331205636972Q1025.725081666546 421.11684526229874 1026.739805010194 420.1220184548008Q1027.734631817692 419.1072951111529 1029.1671824204889 418.112468303655L1029.1671824204889 418.112468303655Q1035.7529358861252 412.66081739856645 1041.2045867912136 406.51278772822934Q1046.6363411601524 400.34486152174225 1050.3768899563445 393.61983230305634L1050.3768899563445 393.61983230305634Q1051.3717167638424 391.6102821519105 1051.3717167638424 390.31700730216323L1051.3717167638424 390.31700730216323Q1051.3717167638424 389.87928350686417 1051.2921306192425 389.3221804946653Q1051.2324410107926 388.7451809463165 1050.9339929685434 388.1681813979677L1050.9339929685434 388.1681813979677L1024.869530612098 328.4387798757929Q1023.4369800093009 325.13595487489977 1021.2085679605055 323.8426800251525Q1019.0000524478602 322.5494051754052 1015.279400187818 322.4101294223555L1015.279400187818 322.4101294223555Q1013.2698500366721 322.4101294223555 1013.2698500366721 320.12202776511026ZM1107.1019145198757 290.0384651063733L1107.1019145198757 290.0384651063733Q1107.1019145198757 288.0289149552275 1109.1114646710214 285.4622617918829Q1111.1011182860173 282.8757120923883 1113.7672541301117 280.8661619412425Q1116.4134934380563 278.85661179009674 1118.2638713000024 278.85661179009674L1118.2638713000024 278.85661179009674Q1120.273421451148 278.85661179009674 1122.8599711506427 280.8661619412425Q1125.4266243139873 282.8757120923883 1127.4361744651333 285.4622617918829Q1129.4457246162788 288.0289149552275 1129.4457246162788 290.0384651063733L1129.4457246162788 290.0384651063733Q1129.4457246162788 291.9087395044694 1127.4361744651333 294.5549788124138Q1125.4266243139873 297.2012181203583 1122.8599711506427 299.2107682715041Q1120.273421451148 301.2203184226499 1118.2638713000024 301.2203184226499L1118.2638713000024 301.2203184226499Q1116.4134934380563 301.2203184226499 1113.7672541301117 299.2107682715041Q1111.1011182860173 297.2012181203583 1109.1114646710214 294.5549788124138Q1107.1019145198757 291.9087395044694 1107.1019145198757 290.0384651063733ZM1099.362161957542 384.14908109567614L1099.362161957542 384.14908109567614Q1099.362161957542 382.0002551914807 1101.3717121086877 382.0002551914807L1101.3717121086877 382.0002551914807L1107.380466025975 381.58242793233154Q1108.813016628772 381.4431521792818 1109.8874295808696 380.7865664863332Q1110.9618425329677 380.14987732953455 1110.9618425329677 378.14032717838876L1110.9618425329677 378.14032717838876L1110.9618425329677 330.4284334907887Q1110.9618425329677 328.1403318335435 1110.3848429846187 327.0659188814457Q1109.8277399724197 325.99150592934797 1108.5344651226728 325.41450638099917L1108.5344651226728 325.41450638099917Q1107.2411902729255 324.6982310796007 1105.3112262663794 324.4196795735013Q1103.3812622598334 324.14112806740184 1101.7895393678368 323.9819557782022L1101.7895393678368 323.9819557782022Q1100.655436807289 323.8426800251525 1099.9988511143406 323.62381812750294Q1099.362161957542 323.42485276600337 1099.362161957542 321.9923021632064L1099.362161957542 321.9923021632064Q1099.362161957542 320.69902731345906 1099.799885752841 320.2016139097101Q1100.21771301199 319.6843039698112 1101.650263614787 319.6843039698112L1101.650263614787 319.6843039698112Q1103.2220899706338 319.6843039698112 1106.8034664776264 319.4853386083116Q1110.3848429846187 319.26647671066206 1113.110668437163 319.1272009576124L1113.110668437163 319.1272009576124Q1116.5527691911057 318.828752915363 1119.4178703966998 318.5502014092636Q1122.2829716022939 318.2517533670142 1123.9940737111901 318.2517533670142L1123.9940737111901 318.2517533670142Q1126.3020719045853 318.2517533670142 1126.7198991637347 319.4853386083116Q1127.1576229590337 320.69902731345906 1127.1576229590337 322.2708536693058L1127.1576229590337 322.2708536693058L1127.1576229590337 378.14032717838876Q1127.1576229590337 380.14987732953455 1128.2320359111313 380.7865664863332Q1129.3064488632292 381.4431521792818 1130.7389994660261 381.58242793233154L1130.7389994660261 381.58242793233154L1136.7477533833135 382.0002551914807Q1138.7573035344594 382.0002551914807 1138.7573035344594 384.14908109567614L1138.7573035344594 384.14908109567614Q1138.7573035344594 386.158631246822 1137.1854771786125 386.158631246822L1137.1854771786125 386.158631246822Q1135.7529265758155 386.158631246822 1133.245963020921 385.9397693491724Q1130.7389994660261 385.74080398767285 1128.5901735618306 385.5816316984732L1128.5901735618306 385.5816316984732Q1126.1428996153857 385.3030801923737 1123.5762464520412 385.16380443932405Q1120.9896967525465 385.0245286862743 1118.9801466014007 385.0245286862743L1118.9801466014007 385.0245286862743Q1116.990492986405 385.0245286862743 1114.4039432869104 385.16380443932405Q1111.8173935874156 385.3030801923737 1109.3900161771207 385.5816316984732L1109.3900161771207 385.5816316984732Q1107.2411902729255 385.74080398767285 1104.7342267180306 385.9397693491724Q1102.2272631631358 386.158631246822 1100.7947125603387 386.158631246822L1100.7947125603387 386.158631246822Q1099.362161957542 386.158631246822 1099.362161957542 384.14908109567614Z " fill="#dddddd" transform="matrix(0.7683814053200658,0,0,0.7683814053200658,0,29.861291283971525)"/></g></svg>